<svg width="110" height="65" viewBox="0 0 110 65" fill="none" xmlns="http://www.w3.org/2000/svg">
<rect width="110" height="65" fill="#0E0101"/>
<line x1="29.5" y1="11" x2="99.5" y2="11" stroke="white" stroke-width="2"/>
<path d="M26.0664 52.957C24.1784 52.957 22.3945 52.638 20.7148 52C19.0482 51.362 17.5833 50.4701 16.3203 49.3242C15.0703 48.1654 14.0807 46.7917 13.3516 45.2031C12.6224 43.6146 12.2578 41.8698 12.2578 39.9688C12.2578 38.1849 12.6289 36.4987 13.3711 34.9102C14.1133 33.3216 15.1745 31.8698 16.5547 30.5547C17.9349 29.2266 19.6081 28.0612 21.5742 27.0586C23.5404 26.043 25.7409 25.2227 28.1758 24.5977L26.6914 23.5625C25.7669 22.9375 25.1029 22.2018 24.6992 21.3555C24.2956 20.4961 24.0938 19.6172 24.0938 18.7188C24.0938 18.0677 24.1849 17.4232 24.3672 16.7852C24.5625 16.1471 24.8294 15.5547 25.168 15.0078C25.5065 14.4609 25.9036 13.9792 26.3594 13.5625C26.8151 13.1328 27.3164 12.8008 27.8633 12.5664L28.332 13.2891C27.4596 13.9141 27.0234 14.6302 27.0234 15.4375C27.0234 16.1797 27.362 16.974 28.0391 17.8203C28.7161 18.6667 29.6992 19.5521 30.9883 20.4766C33.1628 22.0651 35.0703 23.5625 36.7109 24.9688C38.3646 26.362 39.7448 27.7487 40.8516 29.1289C41.9714 30.5091 42.8177 31.9154 43.3906 33.3477C43.9635 34.7669 44.2695 36.3034 44.3086 37.957C44.3086 39.6367 44.0677 41.1732 43.5859 42.5664C43.1042 43.9466 42.4401 45.1966 41.5938 46.3164C40.7474 47.4232 39.7448 48.3932 38.5859 49.2266C37.4271 50.0599 36.1706 50.7565 34.8164 51.3164C33.4622 51.8633 32.043 52.2734 30.5586 52.5469C29.0742 52.8203 27.5768 52.957 26.0664 52.957ZM37.707 39.5586C37.707 38.2565 37.5638 37.026 37.2773 35.8672C37.0039 34.6953 36.5482 33.5495 35.9102 32.4297C35.2852 31.3099 34.4518 30.1966 33.4102 29.0898C32.3815 27.9831 31.1055 26.8438 29.582 25.6719C28.5534 25.8932 27.5768 26.2383 26.6523 26.707C25.7279 27.1628 24.8685 27.7227 24.0742 28.3867C23.2799 29.0378 22.5573 29.7799 21.9062 30.6133C21.2682 31.4336 20.7214 32.3125 20.2656 33.25C19.8229 34.1745 19.4779 35.1445 19.2305 36.1602C18.9831 37.1628 18.8594 38.1784 18.8594 39.207C18.8594 40.2227 18.9701 41.2253 19.1914 42.2148C19.4128 43.1914 19.7253 44.1289 20.1289 45.0273C20.5456 45.9128 21.0534 46.7331 21.6523 47.4883C22.2513 48.2435 22.9219 48.8945 23.6641 49.4414C24.4193 49.9883 25.2396 50.418 26.125 50.7305C27.0234 51.043 27.974 51.1992 28.9766 51.1992C30.1875 51.1992 31.3203 50.9193 32.375 50.3594C33.4427 49.7865 34.3672 48.9922 35.1484 47.9766C35.9427 46.9479 36.5677 45.724 37.0234 44.3047C37.4792 42.8724 37.707 41.2904 37.707 39.5586Z" fill="white"/>
<path d="M34.2695 23.9922H47.3359V24.7148C46.8411 24.7148 46.431 24.7539 46.1055 24.832C45.7799 24.8971 45.5195 24.9948 45.3242 25.125C45.1419 25.2552 45.0117 25.4115 44.9336 25.5938C44.8555 25.776 44.8164 25.9779 44.8164 26.1992V26.3555C45.2591 28.2435 45.7344 30.0664 46.2422 31.8242C46.763 33.569 47.3034 35.3398 47.8633 37.1367C48.4362 38.9336 49.0286 40.8021 49.6406 42.7422C50.2656 44.6823 50.9102 46.7786 51.5742 49.0312C52.3164 47.013 52.9609 45.1315 53.5078 43.3867C54.0547 41.6289 54.5299 39.9883 54.9336 38.4648C55.3372 36.9284 55.6758 35.4961 55.9492 34.168C56.2357 32.8268 56.4831 31.5573 56.6914 30.3594L55.9883 27.4492C55.8971 27.1758 55.7409 26.8828 55.5195 26.5703C55.3112 26.2448 55.0247 25.9453 54.6602 25.6719C54.2956 25.3984 53.8398 25.1706 53.293 24.9883C52.7591 24.806 52.1211 24.7148 51.3789 24.7148V23.9922H64.4648V24.7148C63.957 24.7148 63.5404 24.7539 63.2148 24.832C62.8893 24.8971 62.6289 24.9948 62.4336 25.125C62.2513 25.2552 62.1211 25.4115 62.043 25.5938C61.9779 25.776 61.9453 25.9779 61.9453 26.1992V26.4336C62.362 28.3086 62.7852 30.125 63.2148 31.8828C63.6445 33.6276 64.1003 35.3984 64.582 37.1953C65.0638 38.9792 65.5716 40.8411 66.1055 42.7812C66.6523 44.7083 67.2513 46.7917 67.9023 49.0312C68.8268 46.5052 69.6341 44.1875 70.3242 42.0781C71.0143 39.9557 71.6133 37.9961 72.1211 36.1992C72.6289 34.4023 73.0586 32.7487 73.4102 31.2383C73.7617 29.7148 74.0612 28.2891 74.3086 26.9609V26.8828C74.3086 26.5703 74.25 26.2839 74.1328 26.0234C74.0156 25.75 73.8203 25.5221 73.5469 25.3398C73.2865 25.1445 72.9414 24.9948 72.5117 24.8906C72.0951 24.7734 71.5742 24.7148 70.9492 24.7148V23.9922H79.582C78.9049 26.1406 78.1497 28.3477 77.3164 30.6133C76.4831 32.8789 75.6042 35.151 74.6797 37.4297C73.7682 39.7083 72.8372 41.974 71.8867 44.2266C70.9362 46.4792 70.0052 48.6732 69.0938 50.8086L62.5703 52C61.7109 49.2005 60.9232 46.5443 60.207 44.0312C59.5039 41.5182 58.8398 39.0573 58.2148 36.6484C57.3685 39.0703 56.4896 41.4661 55.5781 43.8359C54.6797 46.2057 53.7487 48.5299 52.7852 50.8086L46.2617 52C45.5586 49.7214 44.875 47.5404 44.2109 45.457C43.5599 43.3737 42.9219 41.3359 42.2969 39.3438C41.6849 37.3516 41.0924 35.3789 40.5195 33.4258C39.9466 31.4727 39.4062 29.4805 38.8984 27.4492H38.8594C38.7682 27.1758 38.6185 26.8828 38.4102 26.5703C38.2018 26.2448 37.9089 25.9453 37.5312 25.6719C37.1667 25.3984 36.7174 25.1706 36.1836 24.9883C35.6497 24.806 35.0117 24.7148 34.2695 24.7148V23.9922Z" fill="white"/>
<path d="M97.1758 30.2031L96.2969 30.2422C95.9193 29.4219 95.4245 28.6927 94.8125 28.0547C94.2135 27.4167 93.5365 26.8763 92.7812 26.4336C92.0391 25.9909 91.2513 25.6589 90.418 25.4375C89.5846 25.2031 88.7578 25.0859 87.9375 25.0859C86.9479 25.0859 86.0169 25.2812 85.1445 25.6719C84.2721 26.0625 83.4714 26.5964 82.7422 27.2734C82.013 27.9505 81.3555 28.7448 80.7695 29.6562C80.1966 30.5547 79.7083 31.5182 79.3047 32.5469C78.9141 33.5625 78.6146 34.6172 78.4062 35.7109C78.1979 36.8047 78.0938 37.8724 78.0938 38.9141C78.0938 39.9688 78.2174 41.0039 78.4648 42.0195C78.7122 43.0352 79.0638 44.0052 79.5195 44.9297C79.9753 45.8411 80.5352 46.681 81.1992 47.4492C81.8633 48.2174 82.6055 48.888 83.4258 49.4609C84.2461 50.0208 85.1445 50.457 86.1211 50.7695C87.0977 51.082 88.1328 51.2383 89.2266 51.2383C90.2161 51.2383 91.0885 51.1471 91.8438 50.9648C92.599 50.7695 93.25 50.5286 93.7969 50.2422C94.3568 49.9557 94.8255 49.6432 95.2031 49.3047C95.5807 48.9531 95.8932 48.6211 96.1406 48.3086C96.388 47.9961 96.5703 47.7227 96.6875 47.4883C96.8177 47.2409 96.9154 47.0781 96.9805 47L96.668 49.7539C96.3294 50.2096 95.8607 50.6328 95.2617 51.0234C94.6758 51.401 93.9857 51.7331 93.1914 52.0195C92.3971 52.319 91.5117 52.5469 90.5352 52.7031C89.5716 52.8724 88.5495 52.957 87.4688 52.957C86.0365 52.957 84.6432 52.8138 83.2891 52.5273C81.9479 52.2409 80.6849 51.8307 79.5 51.2969C78.3151 50.763 77.2279 50.1055 76.2383 49.3242C75.2617 48.5299 74.4154 47.638 73.6992 46.6484C72.9961 45.6589 72.4427 44.5651 72.0391 43.3672C71.6354 42.1693 71.4271 40.8867 71.4141 39.5195C71.4531 37.4102 71.8177 35.5156 72.5078 33.8359C73.2109 32.1432 74.1419 30.6719 75.3008 29.4219C76.4727 28.1589 77.8333 27.1172 79.3828 26.2969C80.9323 25.4635 82.5859 24.8451 84.3438 24.4414C85.2682 24.2201 86.3294 24.0768 87.5273 24.0117C88.7253 23.9466 89.9297 23.9141 91.1406 23.9141C92.3125 23.9141 93.4128 23.9271 94.4414 23.9531C95.4831 23.9792 96.3555 23.9922 97.0586 23.9922C96.9154 24.6042 96.8112 25.151 96.7461 25.6328C96.694 26.1016 96.668 26.5443 96.668 26.9609C96.668 27.5469 96.7135 28.0938 96.8047 28.6016C96.8958 29.0964 97.0195 29.6302 97.1758 30.2031Z" fill="white"/>
</svg>
